<svg xmlns="http://www.w3.org/2000/svg" width="110" height="15" viewBox="0 0 110 15">
  <path fill="#E5E5E5" fill-rule="evenodd" d="M8.81386355 12.0978577L5.01510684 14.0949823C4.81956901 14.1977826 4.57771815 14.122604 4.47491782 13.9270662 4.4339822 13.849202 4.41985633 13.7600148 4.43472706 13.6733117L5.16022504 9.44333396C5.18248021 9.31357633 5.13946082 9.18117625 5.04518638 9.08928139L1.97192765 6.09359451C1.81373422 5.93939403 1.8104973 5.68614872 1.96469778 5.52795529 2.02610122 5.46496184 2.10655819 5.42396696 2.193613 5.41131716L6.44075211 4.79417172C6.57103618 4.77524034 6.68366241 4.69341259 6.74192722 4.5753552L8.64130557.7267943C8.73907449.528692836 8.97892482.447357237 9.17702628.545126154 9.25591133.58405825 9.31976233.647909258 9.35869443.7267943L11.2580728 4.5753552C11.3163376 4.69341259 11.4289638 4.77524034 11.5592479 4.79417172L15.806387 5.41131716C16.0250049 5.44308421 16.1764775 5.64606135 16.1447105 5.86467929 16.1320607 5.9517341 16.0910658 6.03219107 16.0280723 6.09359451L12.9548136 9.08928139C12.8605392 9.18117625 12.8175198 9.31357633 12.839775 9.44333396L13.5652729 13.6733117C13.6026173 13.8910463 13.4563822 14.0978287 13.2386476 14.1351731 13.1519446 14.1500438 13.0627573 14.1359179 12.9848932 14.0949823L9.18613645 12.0978577C9.06960684 12.0365945 8.93039316 12.0365945 8.81386355 12.0978577zM30.8138635 12.0978577L27.0151068 14.0949823C26.819569 14.1977826 26.5777181 14.122604 26.4749178 13.9270662 26.4339822 13.849202 26.4198563 13.7600148 26.4347271 13.6733117L27.160225 9.44333396C27.1824802 9.31357633 27.1394608 9.18117625 27.0451864 9.08928139L23.9719277 6.09359451C23.8137342 5.93939403 23.8104973 5.68614872 23.9646978 5.52795529 24.0261012 5.46496184 24.1065582 5.42396696 24.193613 5.41131716L28.4407521 4.79417172C28.5710362 4.77524034 28.6836624 4.69341259 28.7419272 4.5753552L30.6413056.7267943C30.7390745.528692836 30.9789248.447357237 31.1770263.545126154 31.2559113.58405825 31.3197623.647909258 31.3586944.7267943L33.2580728 4.5753552C33.3163376 4.69341259 33.4289638 4.77524034 33.5592479 4.79417172L37.806387 5.41131716C38.0250049 5.44308421 38.1764775 5.64606135 38.1447105 5.86467929 38.1320607 5.9517341 38.0910658 6.03219107 38.0280723 6.09359451L34.9548136 9.08928139C34.8605392 9.18117625 34.8175198 9.31357633 34.839775 9.44333396L35.5652729 13.6733117C35.6026173 13.8910463 35.4563822 14.0978287 35.2386476 14.1351731 35.1519446 14.1500438 35.0627573 14.1359179 34.9848932 14.0949823L31.1861365 12.0978577C31.0696068 12.0365945 30.9303932 12.0365945 30.8138635 12.0978577zM52.8138635 12.0978577L49.0151068 14.0949823C48.819569 14.1977826 48.5777181 14.122604 48.4749178 13.9270662 48.4339822 13.849202 48.4198563 13.7600148 48.4347271 13.6733117L49.160225 9.44333396C49.1824802 9.31357633 49.1394608 9.18117625 49.0451864 9.08928139L45.9719277 6.09359451C45.8137342 5.93939403 45.8104973 5.68614872 45.9646978 5.52795529 46.0261012 5.46496184 46.1065582 5.42396696 46.193613 5.41131716L50.4407521 4.79417172C50.5710362 4.77524034 50.6836624 4.69341259 50.7419272 4.5753552L52.6413056.7267943C52.7390745.528692836 52.9789248.447357237 53.1770263.545126154 53.2559113.58405825 53.3197623.647909258 53.3586944.7267943L55.2580728 4.5753552C55.3163376 4.69341259 55.4289638 4.77524034 55.5592479 4.79417172L59.806387 5.41131716C60.0250049 5.44308421 60.1764775 5.64606135 60.1447105 5.86467929 60.1320607 5.9517341 60.0910658 6.03219107 60.0280723 6.09359451L56.9548136 9.08928139C56.8605392 9.18117625 56.8175198 9.31357633 56.839775 9.44333396L57.5652729 13.6733117C57.6026173 13.8910463 57.4563822 14.0978287 57.2386476 14.1351731 57.1519446 14.1500438 57.0627573 14.1359179 56.9848932 14.0949823L53.1861365 12.0978577C53.0696068 12.0365945 52.9303932 12.0365945 52.8138635 12.0978577zM74.8138635 12.0978577L71.0151068 14.0949823C70.819569 14.1977826 70.5777181 14.122604 70.4749178 13.9270662 70.4339822 13.849202 70.4198563 13.7600148 70.4347271 13.6733117L71.160225 9.44333396C71.1824802 9.31357633 71.1394608 9.18117625 71.0451864 9.08928139L67.9719277 6.09359451C67.8137342 5.93939403 67.8104973 5.68614872 67.9646978 5.52795529 68.0261012 5.46496184 68.1065582 5.42396696 68.193613 5.41131716L72.4407521 4.79417172C72.5710362 4.77524034 72.6836624 4.69341259 72.7419272 4.5753552L74.6413056.7267943C74.7390745.528692836 74.9789248.447357237 75.1770263.545126154 75.2559113.58405825 75.3197623.647909258 75.3586944.7267943L77.2580728 4.5753552C77.3163376 4.69341259 77.4289638 4.77524034 77.5592479 4.79417172L81.806387 5.41131716C82.0250049 5.44308421 82.1764775 5.64606135 82.1447105 5.86467929 82.1320607 5.9517341 82.0910658 6.03219107 82.0280723 6.09359451L78.9548136 9.08928139C78.8605392 9.18117625 78.8175198 9.31357633 78.839775 9.44333396L79.5652729 13.6733117C79.6026173 13.8910463 79.4563822 14.0978287 79.2386476 14.1351731 79.1519446 14.1500438 79.0627573 14.1359179 78.9848932 14.0949823L75.1861365 12.0978577C75.0696068 12.0365945 74.9303932 12.0365945 74.8138635 12.0978577zM96.8138635 12.0978577L93.0151068 14.0949823C92.819569 14.1977826 92.5777181 14.122604 92.4749178 13.9270662 92.4339822 13.849202 92.4198563 13.7600148 92.4347271 13.6733117L93.160225 9.44333396C93.1824802 9.31357633 93.1394608 9.18117625 93.0451864 9.08928139L89.9719277 6.09359451C89.8137342 5.93939403 89.8104973 5.68614872 89.9646978 5.52795529 90.0261012 5.46496184 90.1065582 5.42396696 90.193613 5.41131716L94.4407521 4.79417172C94.5710362 4.77524034 94.6836624 4.69341259 94.7419272 4.5753552L96.6413056.7267943C96.7390745.528692836 96.9789248.447357237 97.1770263.545126154 97.2559113.58405825 97.3197623.647909258 97.3586944.7267943L99.2580728 4.5753552C99.3163376 4.69341259 99.4289638 4.77524034 99.5592479 4.79417172L103.806387 5.41131716C104.025005 5.44308421 104.176478 5.64606135 104.14471 5.86467929 104.132061 5.9517341 104.091066 6.03219107 104.028072 6.09359451L100.954814 9.08928139C100.860539 9.18117625 100.81752 9.31357633 100.839775 9.44333396L101.565273 13.6733117C101.602617 13.8910463 101.456382 14.0978287 101.238648 14.1351731 101.151945 14.1500438 101.062757 14.1359179 100.984893 14.0949823L97.1861365 12.0978577C97.0696068 12.0365945 96.9303932 12.0365945 96.8138635 12.0978577z"/>
</svg>
