<?xml version="1.0" standalone="no"?>
<!DOCTYPE svg PUBLIC "-//W3C//DTD SVG 20010904//EN"
 "http://www.w3.org/TR/2001/REC-SVG-20010904/DTD/svg10.dtd">
<svg version="1.0" xmlns="http://www.w3.org/2000/svg"
 width="1024.000000pt" height="1024.000000pt" viewBox="0 0 1024.000000 1024.000000"
 preserveAspectRatio="xMidYMid meet">
<metadata>
Created by potrace 1.14, written by Peter Selinger 2001-2017
</metadata>
<g transform="translate(0.000000,1024.000000) scale(0.100000,-0.100000)"
fill="#000000" stroke="none">
<path d="M6120 8499 c-335 -29 -695 -112 -975 -226 -263 -106 -583 -283 -757
-419 -20 -16 -49 -38 -64 -49 -181 -129 -472 -431 -681 -709 -24 -31 -46 -56
-50 -56 -5 1 -24 21 -43 46 -70 90 -265 269 -375 343 -137 92 -321 184 -435
216 -30 9 -64 20 -75 25 -11 5 -56 17 -100 25 -44 9 -102 21 -130 27 -27 5
-140 10 -250 11 -180 0 -213 -2 -330 -27 -221 -45 -447 -135 -625 -247 -104
-66 -245 -185 -335 -283 -249 -270 -398 -580 -456 -946 -17 -108 -23 -353 -10
-430 32 -186 40 -230 55 -290 9 -36 20 -74 25 -85 6 -11 26 -61 46 -111 86
-219 215 -411 392 -586 54 -53 115 -110 135 -125 21 -15 59 -44 85 -64 94 -70
379 -218 421 -219 8 0 28 -7 45 -15 30 -14 110 -36 203 -55 23 -5 111 -16 196
-25 143 -16 165 -16 309 -1 193 21 356 61 523 129 16 7 72 33 125 60 52 26 98
44 101 40 6 -8 24 -65 70 -223 28 -95 68 -216 86 -257 8 -17 14 -34 14 -38 0
-10 56 -138 103 -235 80 -166 205 -373 316 -525 174 -239 520 -583 731 -727
170 -116 220 -149 330 -211 46 -26 236 -121 280 -140 134 -59 180 -77 192 -77
8 0 18 -4 23 -9 9 -7 52 -22 265 -86 78 -23 269 -63 420 -86 127 -20 183 -23
455 -23 197 0 337 4 385 12 41 6 120 19 175 27 364 56 762 199 1112 400 194
111 276 168 493 342 87 70 386 380 466 483 190 246 322 468 454 765 117 263
211 623 247 939 32 293 29 493 -13 831 -31 254 -102 525 -207 790 -40 101
-195 414 -238 480 -90 138 -173 261 -179 265 -3 3 -17 21 -30 40 -48 69 -214
257 -309 349 -325 319 -651 532 -1126 736 -41 18 -257 90 -330 110 -353 99
-812 144 -1155 114z m695 -848 c76 -12 182 -35 234 -52 321 -104 678 -286 861
-438 198 -164 431 -408 530 -554 206 -304 376 -704 422 -996 19 -118 22 -177
22 -451 0 -442 -21 -563 -150 -885 -92 -232 -237 -493 -353 -640 -136 -171
-361 -394 -514 -508 -181 -136 -517 -303 -794 -395 -260 -87 -677 -113 -1083
-67 -194 22 -306 53 -555 157 -406 169 -684 371 -988 718 -130 147 -193 241
-298 445 -126 243 -216 473 -249 635 -51 255 -53 681 -5 935 15 77 31 170 36
206 34 245 267 728 468 969 147 177 408 420 550 513 221 146 555 301 796 370
76 22 199 41 390 61 22 2 153 2 290 1 185 -3 286 -9 390 -24z m-4333 -788
c139 -58 238 -117 321 -194 123 -113 195 -223 266 -407 30 -79 31 -88 32 -235
0 -144 -14 -290 -30 -312 -4 -5 -13 -29 -20 -52 -22 -77 -92 -200 -160 -282
-103 -123 -234 -214 -426 -292 l-80 -33 -205 0 c-233 0 -238 1 -445 107 -88
45 -113 64 -210 161 -96 96 -117 124 -163 212 -105 204 -106 210 -106 444 0
233 1 239 106 444 46 88 66 115 163 211 93 94 124 118 200 157 215 110 249
118 495 113 l166 -3 96 -39z"/>
</g>
</svg>
